<svg width="25" height="24" viewBox="0 0 25 24" fill="none" xmlns="http://www.w3.org/2000/svg">
<path d="M12.5 16.5C14.9853 16.5 17 14.4853 17 12C17 9.51472 14.9853 7.5 12.5 7.5C10.0147 7.5 8 9.51472 8 12C8 14.4853 10.0147 16.5 12.5 16.5Z" stroke="#F6F6F6" stroke-opacity="0.7" stroke-width="1.5" stroke-linecap="round" stroke-linejoin="round"/>
<path d="M17.7213 6.10303C17.9588 6.32178 18.1838 6.54678 18.3963 6.77803L20.9557 7.14365C21.3727 7.86788 21.6941 8.64308 21.9119 9.4499L20.3557 11.5218C20.3557 11.5218 20.3838 12.1593 20.3557 12.478L21.9119 14.5499C21.6951 15.3571 21.3736 16.1324 20.9557 16.8562L18.3963 17.2218C18.3963 17.2218 17.9557 17.6812 17.7213 17.8968L17.3557 20.4562C16.6314 20.8732 15.8562 21.1946 15.0494 21.4124L12.9775 19.8562C12.6594 19.8843 12.3394 19.8843 12.0213 19.8562L9.94941 21.4124C9.14225 21.1956 8.36692 20.8741 7.64316 20.4562L7.27754 17.8968C7.04629 17.678 6.82129 17.453 6.60254 17.2218L4.04316 16.8562C3.62615 16.1319 3.30472 15.3567 3.08691 14.5499L4.64316 12.478C4.64316 12.478 4.61504 11.8405 4.64316 11.5218L3.08691 9.4499C3.30371 8.64274 3.62519 7.8674 4.04316 7.14365L6.60254 6.77803C6.82129 6.54678 7.04629 6.32178 7.27754 6.10303L7.64316 3.54365C8.36739 3.12664 9.14259 2.80521 9.94941 2.5874L12.0213 4.14365C12.3394 4.11552 12.6594 4.11552 12.9775 4.14365L15.0494 2.5874C15.8566 2.8042 16.6319 3.12568 17.3557 3.54365L17.7213 6.10303Z" stroke="#F6F6F6" stroke-opacity="0.7" stroke-width="1.5" stroke-linecap="round" stroke-linejoin="round"/>
</svg>
