<svg xmlns="http://www.w3.org/2000/svg" width="28" height="28" viewBox="0 0 28 28">
    <path fill="#245ec7" d="M14 28A14 14 0 0 1 4.1 4.1a14 14 0 1 1 19.8 19.8A13.908 13.908 0 0 1 14 28zm3.723-18.207l.114.437 2.295 8.316H22L18.866 7.76l-.076-.293h-1.629l-.038.059-1.523 2.706-1.562 2.775-.038.067-.018-.066-.191-.713-.533-2.062-.057-.2-.59-2.273-.076-.293h-1.629l-.038.059-1.524 2.706-1.562 2.775-1.554 2.766-1.561 2.775h1.866L8.1 15.773l1.562-2.765 1.552-2.775.257-.439.114.439.476 1.828.591 2.276.206.776-.371.66-1.562 2.775h1.866l.659-1.171 1.146-2.034 1.32-2.336 1.552-2.775.256-.437z" transform="translate(.002)"/>
</svg>
