<svg width="25" height="24" viewBox="0 0 25 24" fill="none" xmlns="http://www.w3.org/2000/svg">
<path d="M4.25 6V18C4.25 18.3978 4.40804 18.7794 4.68934 19.0607C4.97064 19.342 5.35218 19.5 5.75 19.5H20.75C20.9489 19.5 21.1397 19.421 21.2803 19.2803C21.421 19.1397 21.5 18.9489 21.5 18.75V8.25C21.5 8.05109 21.421 7.86032 21.2803 7.71967C21.1397 7.57902 20.9489 7.5 20.75 7.5H5.75C5.35218 7.5 4.97064 7.34196 4.68934 7.06066C4.40804 6.77936 4.25 6.39782 4.25 6ZM4.25 6C4.25 5.60218 4.40804 5.22064 4.68934 4.93934C4.97064 4.65804 5.35218 4.5 5.75 4.5H18.5" stroke="#19FF89" stroke-width="1.5" stroke-linecap="round" stroke-linejoin="round"/>
<path d="M17.375 14.4375C17.8928 14.4375 18.3125 14.0178 18.3125 13.5C18.3125 12.9822 17.8928 12.5625 17.375 12.5625C16.8572 12.5625 16.4375 12.9822 16.4375 13.5C16.4375 14.0178 16.8572 14.4375 17.375 14.4375Z" fill="#19FF89"/>
</svg>
